<svg xmlns="http://www.w3.org/2000/svg" viewBox="0 0 1035.04 737.45"><defs><style>.cls-1{fill:#f2f2f2;}.cls-2{fill:#d37c59;}.cls-3{fill:#fed892;}.cls-4{fill:#fd8369;}.cls-5{fill:#de8e68;}.cls-11,.cls-6,.cls-9{fill:none;}.cls-6{stroke:#5b5b5b;stroke-width:1.62px;}.cls-11,.cls-6{stroke-linecap:round;stroke-linejoin:round;}.cls-7{fill:#5b5b5b;}.cls-8{fill:#74d5de;}.cls-9{stroke:#74d5de;stroke-miterlimit:10;stroke-width:8.09px;}.cls-10{fill:#fed385;}.cls-11{stroke:#fd8369;stroke-width:3.24px;}</style></defs><title>handshake-colour</title><g id="Layer_2" data-name="Layer 2"><g id="Vector"><path class="cls-1" d="M696.32,129.32c72,68.12,134.95,132.62,205.93,224.31S1052,564.22,1014.66,635.2c-37.3,70.71-190.9,93.51-302.28,100-111.13,6.74-180.29-2.85-243-11.39-62.94-8.29-119.93-15.55-198.68-32.64-79-17.1-179.76-44-231-109-51-65-52.84-168.11-5.44-237S178,241.22,257.78,175.68C337.3,110.15,400.25,13.53,472,1.36,544-10.82,624.57,61.19,696.32,129.32Z"/><path class="cls-2" d="M7.63,331.37C41.14,369,170.41,449,186.83,460.63S470.67,652.39,492.55,661C617.72,655.56,673.8,558.44,673.8,533.82S540.27,333.89,482.24,327.31c-10.36-1.17-131.29,36-131.29,36L84.09,137.51C51.84,111.14,7.63,76.42,7.63,76.42v255"/><rect class="cls-3" x="750.74" y="288.4" width="64.74" height="271.92" transform="translate(-107.26 448.41) rotate(-30)"/><circle class="cls-4" cx="834.09" cy="512.57" r="17.8"/><path class="cls-5" d="M693.46,333.82c-6.66,3.94-45.5,23.37-58.45,21.75s-71.22-22.66-89-16.19-102,43.7-102,43.7S367.94,464,366.33,465.63s-.1,14.21,2.22,16.22,28.46,9.9,32.79,7.27,62.8-47.49,73.32-47.49,110.88,72.13,170.66,135.8c13.79-6,141.06-82.66,141.06-82.66Z"/><path class="cls-5" d="M290.9,527.93s-5.2,29.36,6.31,46.08,101.08,75.8,113.71,77.66,35.67-16,38.27-26-14.12-46.82-18.95-52S356.3,520.13,348.86,519,302.42,520.87,290.9,527.93Z"/><line class="cls-6" x1="299.64" y1="577.43" x2="349.13" y2="539.92"/><line class="cls-6" x1="338.48" y1="608.87" x2="387.98" y2="571.36"/><line class="cls-6" x1="376.37" y1="633.31" x2="413.99" y2="604.81"/><line class="cls-6" x1="617.15" y1="615.61" x2="476.34" y2="501.17"/><line class="cls-6" x1="564.78" y1="644.75" x2="475.47" y2="572.17"/><line class="cls-6" x1="520.13" y1="660.21" x2="446.64" y2="600.49"/><rect class="cls-7" x="105.74" y="322.77" width="117.05" height="127.87" rx="23.74" ry="23.74" transform="translate(290.68 -13.97) rotate(40.53)"/><rect class="cls-8" x="199.35" y="271.62" width="64.67" height="76.4" transform="translate(256.9 -76.23) rotate(40.53)"/><circle class="cls-9" cx="226.49" cy="654.69" r="20.04"/><circle class="cls-9" cx="737.68" cy="624.87" r="14.56"/><circle class="cls-9" cx="638.51" cy="286.38" r="14.56"/><rect class="cls-10" x="323.88" y="105.42" width="251.18" height="99.7"/><polygon class="cls-10" points="513.83 241.44 533.08 200.97 494.58 200.97 513.83 241.44"/><line class="cls-11" x1="357.99" y1="130.8" x2="540.94" y2="130.8"/><line class="cls-11" x1="357.99" y1="155.27" x2="540.94" y2="155.27"/><line class="cls-11" x1="357.99" y1="179.73" x2="540.94" y2="179.73"/><path class="cls-8" d="M1035,115.61l-18.14,10.93S808.48,252.59,743.16,290.43L851.9,478.76,1035,381.6Z"/></g></g></svg>