<svg width="20" height="20" viewBox="0 0 20 20" fill="none" xmlns="http://www.w3.org/2000/svg">
<path d="M10 0.416748C4.475 0.416748 0 4.81675 0 10.2434C0 14.5859 2.865 18.2684 6.8375 19.5668C7.3375 19.6593 7.52083 19.3551 7.52083 19.0943C7.52083 18.8609 7.5125 18.2426 7.50834 17.4234C4.72667 18.0159 4.14 16.1051 4.14 16.1051C3.685 14.9709 3.0275 14.6676 3.0275 14.6676C2.12167 14.0584 3.0975 14.0709 3.0975 14.0709C4.10167 14.1393 4.62917 15.0834 4.62917 15.0834C5.52083 16.5859 6.97 16.1518 7.54167 15.9009C7.63167 15.2651 7.88917 14.8326 8.175 14.5868C5.95417 14.3409 3.62 13.4959 3.62 9.73092C3.62 8.65842 4.0075 7.78175 4.64917 7.09425C4.53667 6.84592 4.19917 5.84675 4.73667 4.49342C4.73667 4.49342 5.57417 4.23008 7.48667 5.50092C8.28667 5.28258 9.13667 5.17425 9.98667 5.16925C10.8367 5.17425 11.6867 5.28258 12.4867 5.50092C14.3867 4.23008 15.2242 4.49342 15.2242 4.49342C15.7617 5.84675 15.4242 6.84592 15.3242 7.09425C15.9617 7.78175 16.3492 8.65842 16.3492 9.73092C16.3492 13.5059 14.0117 14.3368 11.7867 14.5784C12.1367 14.8734 12.4617 15.4759 12.4617 16.3968C12.4617 17.7118 12.4492 18.7684 12.4492 19.0876C12.4492 19.3451 12.6242 19.6526 13.1367 19.5543C17.1375 18.2643 20 14.5793 20 10.2434C20 4.81675 15.5225 0.416748 10 0.416748Z" fill="white"/>
</svg>
