<svg width="23" height="16" viewBox="0 0 23 16" fill="none" xmlns="http://www.w3.org/2000/svg">
<path d="M22.5261 2.50362C22.2611 1.52463 21.4842 0.752899 20.499 0.489286C18.6992 0 11.4997 0 11.4997 0C11.4997 0 4.30058 0 2.50075 0.470736C1.53451 0.734069 0.738686 1.52477 0.473646 2.50362C0 4.29172 0 8 0 8C0 8 0 11.727 0.473646 13.4964C0.738966 14.4752 1.51555 15.247 2.50089 15.5106C4.31953 16 11.5 16 11.5 16C11.5 16 18.6992 16 20.499 15.5293C21.4844 15.2658 22.2611 14.4941 22.5264 13.5152C22.9999 11.727 22.9999 8.01883 22.9999 8.01883C22.9999 8.01883 23.0189 4.29172 22.5261 2.50362ZM9.2076 11.4258V4.57416L15.1943 8L9.2076 11.4258Z" fill="white"/>
</svg>
