<svg id="a5a6e2e0-10cc-4ff4-a9a1-60a047953d16" data-name="Layer 1" xmlns="http://www.w3.org/2000/svg" width="350" height="350" viewBox="0 0 979.99997 594.38459"><path d="M1020.10614,152.80771h-885a7.50272,7.50272,0,0,0-7.5,7.5v457a7.50272,7.50272,0,0,0,7.5,7.5h885a7.53035,7.53035,0,0,0,6.03-3.06,6.567,6.567,0,0,0,.94995-1.72,7.23422,7.23422,0,0,0,.52-2.72v-457A7.50271,7.50271,0,0,0,1020.10614,152.80771Zm4.5,464.5a4.50681,4.50681,0,0,1-4.5,4.5h-885a4.50681,4.50681,0,0,1-4.5-4.5v-457a4.50677,4.50677,0,0,1,4.5-4.5h885a4.50677,4.50677,0,0,1,4.5,4.5Z" transform="translate(-110.00002 -152.80771)" fill="#e6e6e6"/><path id="a7fa35fd-6343-4c7d-bffa-edf3207f3b92" data-name="Path 40" d="M317.16365,298.37839a3.625,3.625,0,0,0,0,7.249h170.878a3.625,3.625,0,0,0,.119-7.249q-.05951-.001-.119,0Z" transform="translate(-110.00002 -152.80771)" fill="#e6e6e6"/><path id="ab6fdd8c-2729-46a7-820c-8bc436468813" data-name="Path 40" d="M317.16365,265.37839a3.625,3.625,0,0,0,0,7.249h48.878a3.625,3.625,0,0,0,.119-7.249q-.05951-.001-.119,0Z" transform="translate(-110.00002 -152.80771)" fill="#e6e6e6"/><path id="a01fe1c8-ee6f-45d9-a685-f0d827ea9125" data-name="Path 40" d="M317.16365,332.37839a3.625,3.625,0,0,0,0,7.249h170.878a3.625,3.625,0,0,0,.119-7.249q-.05951-.001-.119,0Z" transform="translate(-110.00002 -152.80771)" fill="#e6e6e6"/><path id="a656137b-e162-470a-b235-9e9e70a6b83f" data-name="Path 40" d="M835.04864,298.37839a3.625,3.625,0,0,1,0,7.249h-170.878a3.625,3.625,0,1,1-.119-7.249q.0595-.001.119,0Z" transform="translate(-110.00002 -152.80771)" fill="#e6e6e6"/><path id="ab51dad3-2e04-4951-ae1a-30de5d5a2f94" data-name="Path 40" d="M835.04864,265.37839a3.625,3.625,0,0,1,0,7.249h-48.878a3.625,3.625,0,0,1-.119-7.249q.0595-.001.119,0Z" transform="translate(-110.00002 -152.80771)" fill="#e6e6e6"/><path id="bf1d7626-f896-438d-a0f7-98819d5cb6e1" data-name="Path 40" d="M835.04864,332.37839a3.625,3.625,0,0,1,0,7.249h-170.878a3.625,3.625,0,1,1-.119-7.249q.0595-.001.119,0Z" transform="translate(-110.00002 -152.80771)" fill="#e6e6e6"/><path id="b3e0347c-1fde-42d2-8504-0cab7eeb999a" data-name="Path 78" d="M546.43249,472.34033h-234.838c-4.578,0-8.288-2.643-8.293-5.9v-51.042c.005-3.257,3.715-5.9,8.293-5.9h234.838c4.578,0,8.288,2.643,8.293,5.9v51.041C554.72149,469.69634,551.0105,472.33633,546.43249,472.34033Z" transform="translate(-110.00002 -152.80771)" fill="#e6e6e6"/><path d="M272.43372,348.76767a42.83073,42.83073,0,0,1-4.43,19.04c-.33.68-.68,1.34-1.05,2h-75.17c-.37-.66-.72-1.32-1.05-2a43.07126,43.07126,0,1,1,81.7-19.04Z" transform="translate(-110.00002 -152.80771)" fill="#2f2e41"/><circle cx="120.45996" cy="185.05228" r="14.71922" fill="#fff"/><circle cx="120.45996" cy="185.05228" r="4.90642" fill="#3f3d56"/><path d="M187.59285,308.71174c-3.47748-15.5738,7.63867-31.31043,24.82861-35.14881s33.94422,5.67511,37.42169,21.2489-7.91491,21.31769-25.10486,25.156S191.07039,324.28559,187.59285,308.71174Z" transform="translate(-110.00002 -152.80771)" fill="#3d348b"/><path d="M286.60614,235.80771h-124a5.00181,5.00181,0,0,0-5,5v124a5.00181,5.00181,0,0,0,5,5h124a5.00181,5.00181,0,0,0,5-5v-124A5.00181,5.00181,0,0,0,286.60614,235.80771Zm3,129a3.00883,3.00883,0,0,1-3,3h-124a3.00883,3.00883,0,0,1-3-3v-124a3.00879,3.00879,0,0,1,3-3h124a3.00878,3.00878,0,0,1,3,3Z" transform="translate(-110.00002 -152.80771)" fill="#3f3d56"/><path d="M993.60614,235.80771h-124a5.00181,5.00181,0,0,0-5,5v124a5.00181,5.00181,0,0,0,5,5h124a5.00181,5.00181,0,0,0,5-5v-124A5.00181,5.00181,0,0,0,993.60614,235.80771Zm3,129a3.00883,3.00883,0,0,1-3,3h-124a3.00883,3.00883,0,0,1-3-3v-124a3.00879,3.00879,0,0,1,3-3h124a3.00878,3.00878,0,0,1,3,3Z" transform="translate(-110.00002 -152.80771)" fill="#3f3d56"/><rect x="20.60613" y="38.33008" width="897" height="2" fill="#e6e6e6"/><circle cx="42.60613" cy="22" r="9" fill="#e6e6e6"/><circle cx="71.60613" cy="22" r="9" fill="#e6e6e6"/><circle cx="100.60613" cy="22" r="9" fill="#e6e6e6"/><ellipse cx="272.03922" cy="372.65023" rx="6.59448" ry="21.00616" transform="translate(-298.74778 196.41424) rotate(-50.95946)" fill="#2f2e41"/><ellipse cx="183.03922" cy="335.65023" rx="6.59448" ry="21.00616" transform="translate(-302.95142 113.5931) rotate(-50.95946)" fill="#2f2e41"/><path id="b7f0d0fe-5878-4d7b-9169-ef767dd243e7" data-name="Path 78" d="M511.59,440.45835H276.752c-4.578,0-8.288-2.643-8.293-5.9v-51.042c.005-3.257,3.715-5.9,8.293-5.9H511.59c4.578,0,8.288,2.643,8.293,5.9v51.041C519.879,437.81436,516.168,440.45435,511.59,440.45835Zm-234.838-60.484c-2.747,0-4.973,1.586-4.976,3.54v51.041c0,1.954,2.229,3.538,4.976,3.54H511.59c2.747,0,4.973-1.586,4.976-3.54v-51.039c0-1.954-2.229-3.538-4.976-3.54Z" transform="translate(-110.00002 -152.80771)" fill="#3f3d56"/><circle cx="201.12371" cy="255.8202" r="19" fill="#3d348b"/><path id="b9068c95-bea0-463e-9980-b1b2ab5c3777" data-name="Path 40" d="M352.16365,395.0034a3.625,3.625,0,0,0,0,7.249h135.878a3.625,3.625,0,0,0,.119-7.249q-.05951-.001-.119,0Z" transform="translate(-110.00002 -152.80771)" fill="#3f3d56"/><path id="b4ef2f28-17ab-4899-adbe-de2d22554602" data-name="Path 40" d="M352.16365,415.0034a3.625,3.625,0,0,0,0,7.249h135.878a3.625,3.625,0,0,0,.119-7.249q-.05951-.001-.119,0Z" transform="translate(-110.00002 -152.80771)" fill="#3f3d56"/><path d="M606.5,388.19229a4.50493,4.50493,0,0,0-4.5,4.5v94a4.50492,4.50492,0,0,0,4.5,4.5h365a4.50491,4.50491,0,0,0,4.5-4.5v-94a4.50492,4.50492,0,0,0-4.5-4.5Z" transform="translate(-110.00002 -152.80771)" fill="#3d348b"/><path d="M971.5,747.19229h-365a7.5082,7.5082,0,0,1-7.5-7.5v-346a7.5082,7.5082,0,0,1,7.5-7.5h365a7.5082,7.5082,0,0,1,7.5,7.5v346A7.50819,7.50819,0,0,1,971.5,747.19229Zm-365-358a4.50493,4.50493,0,0,0-4.5,4.5v346a4.50492,4.50492,0,0,0,4.5,4.5h365a4.50491,4.50491,0,0,0,4.5-4.5v-346a4.50492,4.50492,0,0,0-4.5-4.5Z" transform="translate(-110.00002 -152.80771)" fill="#3f3d56"/><path d="M871.84544,530.50788h-109.499v2h109.499a20.32666,20.32666,0,0,1,0,40.65332H706.15452a20.32666,20.32666,0,0,1,0-40.65332h6.1919v-2h-6.1919a22.32666,22.32666,0,0,0,0,44.65332H871.84544a22.32666,22.32666,0,0,0,0-44.65332Z" transform="translate(-110.00002 -152.80771)" fill="#e6e6e6"/><path d="M871.84544,599.50788h-109.499v2h109.499a20.32666,20.32666,0,0,1,0,40.65332H706.15452a20.32666,20.32666,0,0,1,0-40.65332h6.1919v-2h-6.1919a22.32666,22.32666,0,0,0,0,44.65332H871.84544a22.32666,22.32666,0,0,0,0-44.65332Z" transform="translate(-110.00002 -152.80771)" fill="#e6e6e6"/><path d="M871.84544,668.50788h-109.499v2h109.499a20.32666,20.32666,0,0,1,0,40.65332H706.15452a20.32666,20.32666,0,1,1,0-40.65332h6.1919v-2h-6.1919a22.32666,22.32666,0,1,0,0,44.65332H871.84544a22.32666,22.32666,0,0,0,0-44.65332Z" transform="translate(-110.00002 -152.80771)" fill="#e6e6e6"/><path id="a8b0d479-597c-4010-af9e-a52c1cd74b0b" data-name="Path 40" d="M724.70593,525.22421a5.94683,5.94683,0,0,0,0,11.89205h26.08573a5.94683,5.94683,0,0,0,.19525-11.89205q-.09763-.00165-.19525,0Z" transform="translate(-110.00002 -152.80771)" fill="#3f3d56"/><path id="a7546b0b-85a8-4a20-88fc-d2fe18f994f7" data-name="Path 40" d="M724.70593,595.22421a5.94683,5.94683,0,0,0,0,11.89205h26.08573a5.94683,5.94683,0,0,0,.19525-11.89205q-.09763-.00165-.19525,0Z" transform="translate(-110.00002 -152.80771)" fill="#3f3d56"/><path id="bacde4d6-97e6-4618-95f8-28bf875e16b4" data-name="Path 40" d="M724.70593,663.22421a5.94683,5.94683,0,0,0,0,11.89205h26.08573a5.94683,5.94683,0,1,0,.19525-11.89205q-.09763-.00165-.19525,0Z" transform="translate(-110.00002 -152.80771)" fill="#3f3d56"/><path id="fd9dd827-52d7-4fa1-83f4-c293a523bb58" data-name="Path 40" d="M714.3595,546.88852a5.94683,5.94683,0,0,0,0,11.89205H863.44522a5.94683,5.94683,0,0,0,.19525-11.89205q-.09762-.00165-.19525,0Z" transform="translate(-110.00002 -152.80771)" fill="#e6e6e6"/><path id="bfc71887-2ccd-4bb6-bfbb-8f0c239a6e0a" data-name="Path 40" d="M714.3595,615.88852a5.94683,5.94683,0,0,0,0,11.89205H863.44522a5.94683,5.94683,0,0,0,.19525-11.89205q-.09762-.00165-.19525,0Z" transform="translate(-110.00002 -152.80771)" fill="#e6e6e6"/><path id="e6544ee3-e65e-4949-b2cc-84e2c4255103" data-name="Path 40" d="M714.3595,684.88852a5.94683,5.94683,0,0,0,0,11.89205H863.44522a5.94683,5.94683,0,0,0,.19525-11.89205q-.09762-.00165-.19525,0Z" transform="translate(-110.00002 -152.80771)" fill="#e6e6e6"/><path d="M677.91614,439.68771a24,24,0,1,1-24-24A23.898,23.898,0,0,1,677.91614,439.68771Z" transform="translate(-110.00002 -152.80771)" fill="#fff"/><path id="af09933a-d45c-4314-8237-a939141c4532" data-name="Path 40" d="M696.95718,420.74627a5.94683,5.94683,0,0,0,0,11.89205H846.0429a5.94683,5.94683,0,1,0,.19525-11.89205q-.09762-.00165-.19525,0Z" transform="translate(-110.00002 -152.80771)" fill="#fff"/><path id="b4790680-994e-4faf-b8ff-fb3e3aecf554" data-name="Path 40" d="M696.95718,446.74627a5.94683,5.94683,0,0,0,0,11.89205H942.0429a5.94683,5.94683,0,1,0,.19525-11.89205q-.09762-.00165-.19525,0Z" transform="translate(-110.00002 -152.80771)" fill="#fff"/><path d="M1060.48615,556.19772a239.37381,239.37381,0,0,1-11.18,66.13c-.14991.49-.32.98-.48,1.48h-41.69995c.04-.44.09-.94.13-1.48.00989-.17.02991-.34.03992-.52h12.81a4.50681,4.50681,0,0,0,4.5-4.5v-220.94c.98,2.14,1.99,4.36,3,6.67C1043.49616,439.13766,1062.4162,495.49771,1060.48615,556.19772Z" transform="translate(-110.00002 -152.80771)" fill="#e6e6e6"/><path d="M1057.354,622.32464c-.34854.49682-.71188.99363-1.08265,1.48307H1024.9861c.2373-.42268.51166-.9195.83052-1.48307,5.1685-9.3285,20.46629-37.21754,34.66666-66.1299,15.26076-31.07025,29.26091-63.31951,28.08185-74.99123C1088.92847,483.83594,1099.48789,564.08462,1057.354,622.32464Z" transform="translate(-110.00002 -152.80771)" fill="#e6e6e6"/><path d="M124.98223,590.48843a121.42747,121.42747,0,0,0,5.67221,33.5665c.079.25217.16184.50058.24464.75278H152.0673c-.02259-.22585-.04519-.478-.06777-.75278-1.41147-16.22621-9.549-114.98352.18068-131.87218C151.32956,493.55281,123.34117,538.93045,124.98223,590.48843Z" transform="translate(-110.00002 -152.80771)" fill="#e6e6e6"/><path d="M126.57059,624.05493c.17691.25217.36134.50435.54954.75278H143c-.12045-.21455-.25971-.46672-.42156-.75278-2.62345-4.735-10.38836-18.891-17.59625-33.5665-7.74612-15.77077-14.85238-32.14-14.2539-38.06437C110.5439,553.76024,105.1841,594.4932,126.57059,624.05493Z" transform="translate(-110.00002 -152.80771)" fill="#e6e6e6"/><ellipse cx="978.64551" cy="310.2329" rx="21.00616" ry="6.59448" transform="translate(-156.48675 101.78905) rotate(-14.48222)" fill="#2f2e41"/><ellipse cx="890.64551" cy="314.2329" rx="21.00616" ry="6.59448" transform="translate(148.68917 863.29623) rotate(-67.4341)" fill="#2f2e41"/><circle cx="826.53169" cy="151.49126" r="42.01233" fill="#2f2e41"/><path d="M930.40973,360.16717l-12.76312.05933c-9.34253-9.197-7.96014-16.57959-.10626-22.86725l12.76306-.05932C924.41913,344.54489,922.85071,352.06509,930.40973,360.16717Z" transform="translate(-110.00002 -152.80771)" fill="#2f2e41"/><ellipse cx="921.38031" cy="362.60236" rx="10.63602" ry="3.98853" transform="translate(-167.16729 361.0123) rotate(-30.26634)" fill="#2f2e41"/><path d="M953.40973,360.16717l-12.76312.05933c-9.34253-9.197-7.96014-16.57959-.10626-22.86725l12.76306-.05932C947.41913,344.54489,945.85071,352.06509,953.40973,360.16717Z" transform="translate(-110.00002 -152.80771)" fill="#2f2e41"/><ellipse cx="944.38031" cy="362.60236" rx="10.63602" ry="3.98853" transform="translate(-164.0322 372.60476) rotate(-30.26634)" fill="#2f2e41"/><circle cx="825.41866" cy="140.86029" r="14.35864" fill="#fff"/><circle cx="825.50012" cy="147.76738" r="4.78622" fill="#3f3d56"/><path d="M977.103,265.03968c3.32163-15.20789-7.5934-30.50849-24.37949-34.17481s-33.08659,5.68993-36.40825,20.89782,7.81762,20.75932,24.60368,24.4257S973.78139,280.24758,977.103,265.03968Z" transform="translate(-110.00002 -152.80771)" fill="#3d348b"/><path d="M945.02178,322.60687a9.57243,9.57243,0,1,1-19.14455.10779l-.0001-.01879c-.02457-5.28665,4.256-6.40152,9.54268-6.42606S944.99723,317.32023,945.02178,322.60687Z" transform="translate(-110.00002 -152.80771)" fill="#fff"/><path d="M670.60614,456.87771v.05a23.97793,23.97793,0,0,1-32.44.86c-.02-.3-.03-.61-.03-.91a16.235,16.235,0,1,1,32.47,0Z" transform="translate(-110.00002 -152.80771)" fill="#2f2e41"/><circle cx="544.78015" cy="299.95429" r="5.5498" fill="#fff"/><circle cx="544.78015" cy="299.95429" r="1.84994" fill="#3f3d56"/><path d="M638.61735,441.7718c-1.31116-5.872,2.88012-11.80542,9.3615-13.25266s12.79848,2.13977,14.10964,8.01178-2.98427,8.03772-9.46565,9.48494S639.92854,447.64384,638.61735,441.7718Z" transform="translate(-110.00002 -152.80771)" fill="#3d348b"/><path d="M785.78856,386.63612c-2.30449-10.06463,2.94217-21.10222,11.77583-26.25067,4.05692-2.36446,9.14962-3.59805,13.59336-1.48868a5.49863,5.49863,0,0,1,3.415,4.01926,4.58077,4.58077,0,0,1-2.85573,4.62611,6.26518,6.26518,0,0,1-5.82556-.00614,7.33361,7.33361,0,0,1-3.22331-5.81727c-.432-5.74316,3.96989-9.94565,9.04856-11.74214,6.507-2.30172,13.521-1.22514,20.25778-1.06908a89.86763,89.86763,0,0,0,19.24093-1.671,91.53518,91.53518,0,0,0,38.64991-17.64415c1.52117-1.18545-.61547-3.29482-2.12132-2.12132a88.49622,88.49622,0,0,1-38.98231,17.17928,98.91644,98.91644,0,0,1-22.04277,1.03458c-7.033-.34085-14.66288-.35062-20.696,3.8351-4.91139,3.40746-7.83141,9.56448-5.70873,15.45325a9.3664,9.3664,0,0,0,5.43768,5.78709,9.59539,9.59539,0,0,0,7.35246-.56654,7.41017,7.41017,0,0,0,2.06294-12.18459c-3.88847-3.6221-10.14291-3.86754-14.91964-2.15723-11.00255,3.93945-18.65776,15.65161-17.9703,27.31328a26.011,26.011,0,0,0,.61838,4.26834c.43073,1.88118,3.32387,1.085,2.89284-.79752Z" transform="translate(-110.00002 -152.80771)" fill="#3f3d56"/></svg>